<?xml version="1.0" encoding="UTF-8" standalone="no"?>
<!-- Created with Inkscape (http://www.inkscape.org/) -->

<svg
   width="210mm"
   height="297mm"
   viewBox="0 0 210 297"
   version="1.1"
   id="svg5"
   xml:space="preserve"
   inkscape:export-filename="image.svg"
   inkscape:export-xdpi="96"
   inkscape:export-ydpi="96"
   inkscape:version="1.2.2 (732a01da63, 2022-12-09)"
   sodipodi:docname="dessin.svg"
   xmlns:inkscape="http://www.inkscape.org/namespaces/inkscape"
   xmlns:sodipodi="http://sodipodi.sourceforge.net/DTD/sodipodi-0.dtd"
   xmlns="http://www.w3.org/2000/svg"
   xmlns:svg="http://www.w3.org/2000/svg"><sodipodi:namedview
     id="namedview7"
     pagecolor="#ffffff"
     bordercolor="#000000"
     borderopacity="0.25"
     inkscape:showpageshadow="2"
     inkscape:pageopacity="0.0"
     inkscape:pagecheckerboard="0"
     inkscape:deskcolor="#d1d1d1"
     inkscape:document-units="mm"
     showgrid="false"
     inkscape:zoom="1"
     inkscape:cx="218.5"
     inkscape:cy="373.5"
     inkscape:window-width="1920"
     inkscape:window-height="991"
     inkscape:window-x="-9"
     inkscape:window-y="-9"
     inkscape:window-maximized="1"
     inkscape:current-layer="layer1" /><defs
     id="defs2" /><g
     inkscape:label="Calque 1"
     inkscape:groupmode="layer"
     id="layer1"><path
       style="fill:#b8b8b8;fill-opacity:1;stroke:none;stroke-width:0.167387"
       d="m 94.071727,93.834526 c -9.51597,1.249443 -19.2626,1.082715 -27.953686,5.931794 -2.000108,1.11594 -4.290119,2.69813 -4.89427,5.04474 -0.398687,1.54855 -0.127352,3.42941 -0.127352,5.02162 0,1.77163 -0.177596,3.46358 0.831132,5.02162 2.482803,3.83468 8.085896,5.4585 12.225086,6.64679 11.84684,3.4013 25.01855,3.60669 37.160003,2.01015 5.49632,-0.72261 10.96303,-1.94805 16.06918,-4.13765 2.39381,-1.02642 5.25212,-2.61794 6.48225,-5.02145 0.85317,-1.66701 0.54802,-3.70412 0.54802,-5.52379 0,-2.54651 0.18262,-4.69576 -1.72225,-6.66695 -2.67167,-2.764638 -6.8818,-4.256194 -10.49703,-5.28807 -6.52024,-1.861084 -13.17288,-2.65361 -19.91909,-2.949042 -2.682393,-0.11747 -5.520943,-0.441772 -8.201993,-0.08976 M 61.096419,122.55412 c 0,3.32833 -1.019254,8.49239 1.226731,11.21495 3.450694,4.18284 10.245837,5.94175 15.344617,6.96332 12.99127,2.60304 26.670003,2.7418 39.670813,0.10026 5.25981,-1.06877 12.5271,-2.74884 15.98064,-7.23097 2.08682,-2.70849 1.09287,-7.79724 1.09287,-11.04756 -1.73296,0.65582 -3.32097,1.84779 -5.02162,2.62647 -2.50596,1.14744 -5.19637,1.99944 -7.86721,2.66715 -8.2691,2.06724 -16.80217,2.67502 -25.275493,2.57425 -7.66333,-0.0912 -15.50392,-0.68511 -22.93207,-2.74984 -2.49703,-0.69415 -5.015675,-1.46162 -7.365041,-2.57057 -1.631827,-0.77031 -3.181599,-1.9144 -4.854237,-2.54746 m 0,18.24522 c 0,3.4912 -1.041283,8.73126 1.389466,11.54905 3.327866,3.85795 9.428112,5.38369 14.177562,6.50936 13.09538,3.10387 27.517643,3.07876 40.675133,0.3537 5.22031,-1.08116 12.51991,-2.74549 15.95519,-7.19716 2.12315,-2.75118 1.11832,-7.91106 1.11832,-11.21495 -11.3117,6.29762 -23.83077,8.03459 -36.657833,8.03459 -12.82707,0 -25.34613,-1.73697 -36.657838,-8.03459 m 0,18.41261 c 0,3.22405 -0.995201,8.35028 1.044498,11.04739 3.442558,4.55244 10.59596,6.10747 15.86163,7.2688 13.1384,2.89781 27.929423,2.86902 41.009903,-0.34314 4.67463,-1.14794 10.68183,-2.61007 13.95744,-6.42985 2.46209,-2.8712 1.4422,-7.98873 1.4422,-11.5432 -2.77495,1.31248 -5.26734,2.94099 -8.20198,3.95971 -10.56566,3.66796 -22.23423,4.39911 -33.310093,3.91402 -7.95156,-0.34816 -16.03403,-1.28687 -23.601612,-3.91402 -2.934638,-1.01872 -5.427071,-2.64723 -8.201986,-3.95971 z"
       id="path2332"
       inkscape:export-filename=".\image.png"
       inkscape:export-xdpi="114.07134"
       inkscape:export-ydpi="114.07134" /><path
       style="fill:#f1940a;fill-opacity:1;stroke:#ffffff;stroke-width:7;stroke-linecap:butt;stroke-linejoin:round;stroke-dasharray:none;stroke-opacity:1;paint-order:stroke markers fill"
       d="m 128.40971,100.412 c 0.21892,-0.553673 0.50756,-1.065284 0.65473,-1.647742 0.079,-0.312511 0.13919,-0.630314 0.13036,-0.953887 -0.0285,-1.041823 -0.78324,-1.553503 -1.78259,-1.389669 -1.24066,0.20339 -2.32912,1.092017 -3.19224,1.947821 -0.37502,0.371801 -0.75883,1.168605 -1.26036,1.352963 -0.39363,0.144637 -1.00384,-0.05659 -1.40913,-0.102057 -1.19175,-0.133809 -2.71699,-0.58656 -3.90363,-0.412833 -0.44609,0.06531 -0.77763,0.516221 -1.08652,0.807964 -0.82908,0.78308 -1.83719,1.56295 -2.49859,2.49248 2.9927,1.51275 6.36791,2.50028 9.49508,3.71382 1.78647,0.69319 3.90692,1.95305 5.80735,2.17487 -0.51428,1.02917 -1.35451,1.92994 -2.02173,2.86541 -1.44574,2.02692 -2.92845,4.03026 -4.40297,6.03631 -0.64672,0.87983 -1.52595,2.7533 -2.49509,3.2613 -0.39727,0.20815 -1.08917,-0.0329 -1.51474,-0.0791 -1.05045,-0.11415 -2.09516,-0.27914 -3.14562,-0.39326 -0.37244,-0.0405 -0.86864,-0.20467 -1.23606,-0.10305 -0.59248,0.16401 -1.1236,1.06224 -1.5174,1.50659 l 0.006,0.0942 11.19378,9.92055 0.0942,-0.006 c 0.39382,-0.44435 1.22169,-1.0796 1.31332,-1.68745 0.0567,-0.37691 -0.16589,-0.84984 -0.25081,-1.21472 -0.23954,-1.02913 -0.52888,-2.04645 -0.76841,-3.07557 -0.0971,-0.41694 -0.41949,-1.07484 -0.26057,-1.49424 0.38784,-1.02316 2.14209,-2.12114 2.93784,-2.86891 1.72695,-1.62271 3.46733,-3.23129 5.19428,-4.85418 0.91607,-0.86079 1.822,-1.90072 2.8709,-2.59364 0.37868,1.57018 1.6258,3.15385 2.37104,4.58718 1.69939,3.26844 3.26975,6.83366 5.31379,9.89674 0.84332,-0.76834 1.49641,-1.86283 2.17418,-2.78 0.25252,-0.3418 0.66032,-0.72503 0.67155,-1.17573 0.0299,-1.19892 -0.60287,-2.65871 -0.87891,-3.82574 -0.0939,-0.39669 -0.36715,-0.97867 -0.27065,-1.38665 0.1188,-0.50241 0.87813,-1.00051 1.19177,-1.4125 0.72917,-0.95764 1.44308,-2.07406 1.54389,-3.30951 0.0848,-1.04007 -0.50496,-1.79889 -1.58765,-1.69766 -0.32229,0.0301 -0.63057,0.12809 -0.93133,0.24404 -0.56054,0.2161 -1.03376,0.56411 -1.55711,0.84798 -0.41336,-1.64321 -0.78907,-3.29588 -1.18957,-4.94224 -0.14463,-0.59438 -0.5783,-1.55314 -0.37807,-2.15308 0.29841,-0.89383 1.16369,-1.79517 1.70425,-2.56246 1.39466,-1.97957 3.12234,-3.99966 4.13041,-6.209072 0.54522,-1.19499 1.22638,-3.085359 -0.0159,-4.111524 -1.19934,-0.990771 -2.8933,-0.129412 -4.00371,0.54911 -2.07227,1.266325 -3.87011,3.224201 -5.66775,4.846635 -0.69678,0.62884 -1.48759,1.596171 -2.3391,1.999811 -0.57152,0.27088 -1.57546,-0.0444 -2.18291,-0.1166 -1.68254,-0.19976 -3.3684,-0.37416 -5.04938,-0.58706 z"
       id="path2383" /><path
       style="fill:#5e5e5e;stroke:none;stroke-width:5.67123;stroke-dasharray:none;paint-order:stroke markers fill;fill-opacity:1"
       d="m 130.6493,72.705106 c -5.70272,0.179839 -10.99985,0.709381 -16.34909,3.000437 -14.911423,6.386535 -24.470563,21.885215 -23.922173,38.356047 0.18069,5.42248 1.46688,10.68528 3.7009,15.57991 0.52856,1.15795 3.06768,4.43764 2.2996,5.58855 -0.98995,1.48274 -3.07447,2.70158 -4.436,3.82389 -0.45439,0.37468 -1.10676,1.09396 -1.75362,0.84579 -2.07568,-0.79609 -2.62518,-4.07011 -5.55798,-2.66699 -2.38239,1.13979 -4.55534,3.61338 -6.58839,5.31319 L 64.59381,153.79035 c -2.444087,2.04342 -6.458391,4.31319 -8.109828,7.08497 -1.064625,1.78694 -0.05601,3.41008 1.051079,4.81771 1.898188,2.41328 3.808379,4.81686 5.713229,7.22462 0.937986,1.18557 1.848755,2.57278 3.473106,2.68404 2.713618,0.18585 5.884801,-3.73309 7.844241,-5.37134 l 15.04436,-12.5785 c 2.08456,-1.74288 5.31283,-3.59785 6.76598,-5.93901 1.64668,-2.65284 -1.21448,-3.73877 -1.54134,-5.93857 -0.10435,-0.70175 0.71352,-1.21174 1.16293,-1.59272 1.34736,-1.14238 2.93121,-2.98929 4.545483,-3.68547 1.24539,-0.53681 3.18146,2.11992 4.08094,2.85006 3.55632,2.8872 7.5335,5.08222 11.81821,6.60552 14.40867,5.12218 31.36279,0.50714 41.43488,-11.38311 17.24122,-20.3533 10.1307,-53.004083 -14.3918,-63.071227 -3.92165,-1.60992 -8.56839,-2.92681 -12.83598,-2.792217 m -0.85773,6.303879 c 3.65121,-0.06597 7.41743,0.888991 10.81894,2.150854 3.50864,1.301629 6.78682,3.325942 9.60702,5.826485 17.33348,15.369086 13.62812,45.285126 -7.37651,55.427696 -4.07763,1.96891 -8.53441,3.15124 -13.04303,3.26176 -4.56999,0.11188 -9.04523,-0.7366 -13.28587,-2.46919 -20.371283,-8.32407 -26.219203,-35.89341 -11.94326,-52.728774 2.70433,-3.189163 5.95961,-5.821895 9.63162,-7.737883 4.92994,-2.572448 10.11294,-3.63197 15.59109,-3.730948 m -0.0393,6.447655 c -9.30853,0.296595 -18.00655,4.259599 -23.02206,12.736132 -1.92448,3.252478 -3.25459,6.973558 -3.76029,10.744038 -0.29315,2.18687 0.81593,4.13739 3.10477,4.15034 1.27412,0.007 2.37848,-0.81053 2.80747,-2.04282 1.55832,-4.47634 1.86293,-8.29857 5.11557,-12.102876 3.04824,-3.565061 7.37885,-6.109022 11.94847,-6.870389 2.03768,-0.339503 5.13862,0.485448 6.92106,-0.541004 1.79418,-1.033245 2.08252,-3.832182 0.53667,-5.209487 -0.958,-0.853551 -2.44281,-0.902455 -3.65166,-0.863934 m -62.248231,82.54777 -0.206129,-0.0212 -3.870347,-4.8941 c 4.117484,-4.85318 10.201104,-8.7227 15.066164,-12.79031 1.88306,-1.57441 4.30856,-4.52802 6.594,-5.36763 1.09553,-0.4026 4.18462,3.44706 4.07204,4.53983 -0.0692,0.67146 -0.9108,1.18565 -1.36884,1.57151 l -4.10281,3.43053 z"
       id="path2381" /></g></svg>
