<?xml version="1.0" encoding="UTF-8" standalone="no"?>
<!-- Created with Inkscape (http://www.inkscape.org/) -->

<svg
   xmlns:dc="http://purl.org/dc/elements/1.1/"
   xmlns:cc="http://creativecommons.org/ns#"
   xmlns:rdf="http://www.w3.org/1999/02/22-rdf-syntax-ns#"
   xmlns:svg="http://www.w3.org/2000/svg"
   xmlns="http://www.w3.org/2000/svg"
   xmlns:sodipodi="http://sodipodi.sourceforge.net/DTD/sodipodi-0.dtd"
   xmlns:inkscape="http://www.inkscape.org/namespaces/inkscape"
   version="1.1"
   id="svg2"
   xml:space="preserve"
   width="17.511316"
   height="17.548241"
   viewBox="0 0 17.511316 17.54824"
   sodipodi:docname="symbole_ndb_sia.svg"
   inkscape:version="0.92.4 (5da689c313, 2019-01-14)"
   inkscape:export-filename="O:\2022\F-OMYR_DE-HAVILLAND-DHC6-400-400_CAIRE_BEA2022-0151\GR_EXPLOITATION\NAV_AERIENNE_AERODROME\Cartes\AD_2_TFFR_IAC_RWY30_RNP.png"
   inkscape:export-xdpi="600"
   inkscape:export-ydpi="600"><metadata
     id="metadata8"><rdf:RDF><cc:Work
         rdf:about=""><dc:format>image/svg+xml</dc:format><dc:type
           rdf:resource="http://purl.org/dc/dcmitype/StillImage" /><dc:title></dc:title></cc:Work></rdf:RDF></metadata><defs
     id="defs6"><clipPath
       clipPathUnits="userSpaceOnUse"
       id="clipPath322"><path
         d="M 57.582,716.77 H 567.643 V 291.898 H 57.582 Z"
         id="path320"
         inkscape:connector-curvature="0" /></clipPath><clipPath
       clipPathUnits="userSpaceOnUse"
       id="clipPath334"><path
         d="M 57.067,728.298 H 567.545 V 291.763 H 57.067 Z"
         id="path332"
         inkscape:connector-curvature="0" /></clipPath><clipPath
       clipPathUnits="userSpaceOnUse"
       id="clipPath370"><path
         d="M 57.067,728.298 H 567.545 V 291.763 H 57.067 Z"
         id="path368"
         inkscape:connector-curvature="0" /></clipPath><clipPath
       clipPathUnits="userSpaceOnUse"
       id="clipPath402"><path
         d="M 57.067,728.298 H 567.545 V 291.763 H 57.067 Z"
         id="path400"
         inkscape:connector-curvature="0" /></clipPath><clipPath
       clipPathUnits="userSpaceOnUse"
       id="clipPath510"><path
         d="M 0.029999,841.86 H 595.26 V 0 H 0.029999 Z"
         id="path508"
         inkscape:connector-curvature="0" /></clipPath><pattern
       patternTransform="translate(-36.003158,-88.208614)"
       patternUnits="userSpaceOnUse"
       x="0"
       y="0"
       width="36.3721"
       height="34.980899"
       id="pattern1272"><g
         transform="translate(36.035,24.733)"
         id="g1270"><path
           d="M 0,0 -15.051,-24.731"
           style="fill:none;stroke:#ec086d;stroke-opacity:1;stroke-width:0.283;stroke-linecap:butt;stroke-linejoin:miter;stroke-miterlimit:3.864;stroke-dasharray:none"
           id="path1200" /><g
           transform="translate(0,-4.93)"
           id="g1268"><path
             d="M 0,0 -12.037,-19.779"
             style="fill:none;stroke:#ec086d;stroke-opacity:1;stroke-width:0.283;stroke-linecap:butt;stroke-linejoin:miter;stroke-miterlimit:3.864;stroke-dasharray:none"
             id="path1202" /><g
             transform="translate(0.004,-4.923)"
             id="g1266"><path
               d="M 0,0 -9.042,-14.857"
               style="fill:none;stroke:#ec086d;stroke-opacity:1;stroke-width:0.283;stroke-linecap:butt;stroke-linejoin:miter;stroke-miterlimit:3.864;stroke-dasharray:none"
               id="path1204" /><g
               transform="translate(0.049,-4.85)"
               id="g1264"><path
                 d="M 0,0 -6.09,-10.007"
                 style="fill:none;stroke:#ec086d;stroke-opacity:1;stroke-width:0.283;stroke-linecap:butt;stroke-linejoin:miter;stroke-miterlimit:3.864;stroke-dasharray:none"
                 id="path1206" /><g
                 transform="translate(-0.045,-5.0034)"
                 id="g1262"><path
                   d="M 0,0 -3.045,-5.0031"
                   style="fill:none;stroke:#ec086d;stroke-opacity:1;stroke-width:0.283;stroke-linecap:butt;stroke-linejoin:miter;stroke-miterlimit:3.864;stroke-dasharray:none"
                   id="path1208" /><g
                   transform="translate(0.004,24.656)"
                   id="g1260"><path
                     d="M 0,0 -18.041,-29.645"
                     style="fill:none;stroke:#ec086d;stroke-opacity:1;stroke-width:0.283;stroke-linecap:butt;stroke-linejoin:miter;stroke-miterlimit:3.864;stroke-dasharray:none"
                     id="path1210" /><g
                     transform="translate(-0.092,4.779)"
                     id="g1258"><path
                       d="M 0,0 -20.914,-34.365"
                       style="fill:none;stroke:#ec086d;stroke-opacity:1;stroke-width:0.283;stroke-linecap:butt;stroke-linejoin:miter;stroke-miterlimit:3.864;stroke-dasharray:none"
                       id="path1212" /><g
                       transform="translate(-2.855,0.238)"
                       id="g1256"><path
                         d="M 0,0 -21.094,-34.661"
                         style="fill:none;stroke:#ec086d;stroke-opacity:1;stroke-width:0.283;stroke-linecap:butt;stroke-linejoin:miter;stroke-miterlimit:3.864;stroke-dasharray:none"
                         id="path1214" /><g
                         transform="translate(-3.056,-0.091)"
                         id="g1254"><path
                           d="M 0,0 -21.06,-34.606"
                           style="fill:none;stroke:#ec086d;stroke-opacity:1;stroke-width:0.283;stroke-linecap:butt;stroke-linejoin:miter;stroke-miterlimit:3.864;stroke-dasharray:none"
                           id="path1216" /><g
                           transform="translate(-3)"
                           id="g1252"><path
                             d="M 0,0 -21.039,-34.57"
                             style="fill:none;stroke:#ec086d;stroke-opacity:1;stroke-width:0.283;stroke-linecap:butt;stroke-linejoin:miter;stroke-miterlimit:3.864;stroke-dasharray:none"
                             id="path1218" /><g
                             transform="translate(-3.034,-0.056)"
                             id="g1250"><path
                               d="M 0,0 -20.969,-34.455"
                               style="fill:none;stroke:#ec086d;stroke-opacity:1;stroke-width:0.283;stroke-linecap:butt;stroke-linejoin:miter;stroke-miterlimit:3.864;stroke-dasharray:none"
                               id="path1220" /><g
                               transform="translate(-2.966,0.056)"
                               id="g1248"><path
                                 d="M 0,0 -21.003,-34.512"
                                 style="fill:none;stroke:#ec086d;stroke-opacity:1;stroke-width:0.283;stroke-linecap:butt;stroke-linejoin:miter;stroke-miterlimit:3.864;stroke-dasharray:none"
                                 id="path1222" /><g
                                 transform="translate(-3)"
                                 id="g1246"><path
                                   d="M 0,0 -18.039,-29.64"
                                   style="fill:none;stroke:#ec086d;stroke-opacity:1;stroke-width:0.283;stroke-linecap:butt;stroke-linejoin:miter;stroke-miterlimit:3.864;stroke-dasharray:none"
                                   id="path1224" /><g
                                   transform="translate(-3.027,-0.045)"
                                   id="g1244"><path
                                   d="M 0,0 -15.016,-24.673"
                                   style="fill:none;stroke:#ec086d;stroke-opacity:1;stroke-width:0.283;stroke-linecap:butt;stroke-linejoin:miter;stroke-miterlimit:3.864;stroke-dasharray:none"
                                   id="path1226" /><g
                                   transform="translate(-11.99,0.018)"
                                   id="g1242"><path
                                   d="M 0,0 -3.0092,-4.945"
                                   style="fill:none;stroke:#ec086d;stroke-opacity:1;stroke-width:0.283;stroke-linecap:butt;stroke-linejoin:miter;stroke-miterlimit:3.864;stroke-dasharray:none"
                                   id="path1228" /><g
                                   transform="translate(2.9822,-0.03)"
                                   id="g1240"><path
                                   d="M 0,0 -5.9898,-9.842"
                                   style="fill:none;stroke:#ec086d;stroke-opacity:1;stroke-width:0.283;stroke-linecap:butt;stroke-linejoin:miter;stroke-miterlimit:3.864;stroke-dasharray:none"
                                   id="path1230" /><g
                                   transform="translate(3.0071,0.011)"
                                   id="g1238"><path
                                   d="M 0,0 -9.0169,-14.816"
                                   style="fill:none;stroke:#ec086d;stroke-opacity:1;stroke-width:0.283;stroke-linecap:butt;stroke-linejoin:miter;stroke-miterlimit:3.864;stroke-dasharray:none"
                                   id="path1232" /><g
                                   transform="translate(3.014,0.022)"
                                   id="g1236"><path
                                   d="M 0,0 -11.995,-19.71"
                                   style="fill:none;stroke:#ec086d;stroke-opacity:1;stroke-width:0.283;stroke-linecap:butt;stroke-linejoin:miter;stroke-miterlimit:3.864;stroke-dasharray:none"
                                   id="path1234" /></g></g></g></g></g></g></g></g></g></g></g></g></g></g></g></g></g></g></pattern><clipPath
       clipPathUnits="userSpaceOnUse"
       id="clipPath1306"><path
         d="M 0.029999,841.86 H 595.26 V 0 H 0.029999 Z"
         id="path1304"
         inkscape:connector-curvature="0" /></clipPath></defs><sodipodi:namedview
     pagecolor="#ffffff"
     bordercolor="#666666"
     borderopacity="1"
     objecttolerance="10"
     gridtolerance="10"
     guidetolerance="10"
     inkscape:pageopacity="0"
     inkscape:pageshadow="2"
     inkscape:window-width="1920"
     inkscape:window-height="1057"
     id="namedview4"
     showgrid="false"
     inkscape:zoom="13.455439"
     inkscape:cx="7.0435399"
     inkscape:cy="1.6138269"
     inkscape:window-x="-8"
     inkscape:window-y="-8"
     inkscape:window-maximized="1"
     inkscape:current-layer="g10" /><g
     id="g10"
     inkscape:groupmode="layer"
     inkscape:label="AD_2_TFFR_IAC_RWY30_RNP"
     transform="matrix(1.3333333,0,0,-1.3333333,-189.40936,761.75533)">





















<g
   id="g804"
   transform="translate(148.24,564.792)"
   inkscape:export-xdpi="600"
   inkscape:export-ydpi="600"><path
     d="M 0,0 C 0,0.251 0.204,0.455 0.454,0.455 0.706,0.455 0.909,0.251 0.909,0 0.909,-0.251 0.706,-0.454 0.454,-0.454 0.204,-0.454 0,-0.251 0,0"
     style="fill:#231f20;fill-opacity:1;fill-rule:nonzero;stroke:none"
     id="path806"
     inkscape:connector-curvature="0" /></g><g
   id="g808"
   transform="translate(148.806,568.571)"
   inkscape:export-xdpi="600"
   inkscape:export-ydpi="600"><path
     d="m 0,0 c -0.172,0.044 -0.348,-0.06 -0.392,-0.233 -0.044,-0.172 0.06,-0.348 0.233,-0.392 0.172,-0.044 0.348,0.06 0.392,0.233 C 0.277,-0.219 0.173,-0.044 0,0"
     style="fill:#231f20;fill-opacity:1;fill-rule:nonzero;stroke:none"
     id="path810"
     inkscape:connector-curvature="0" /></g><g
   id="g812"
   transform="translate(152.181,565.071)"
   inkscape:export-xdpi="600"
   inkscape:export-ydpi="600"><path
     d="m 0,0 c -0.172,0.044 -0.348,-0.06 -0.392,-0.233 -0.044,-0.172 0.06,-0.348 0.233,-0.392 0.172,-0.044 0.348,0.06 0.392,0.233 C 0.277,-0.219 0.173,-0.044 0,0"
     style="fill:#231f20;fill-opacity:1;fill-rule:nonzero;stroke:none"
     id="path814"
     inkscape:connector-curvature="0" /></g><g
   id="g816"
   transform="translate(148.744,561.696)"
   inkscape:export-xdpi="600"
   inkscape:export-ydpi="600"><path
     d="m 0,0 c -0.173,0.044 -0.348,-0.06 -0.392,-0.233 -0.044,-0.172 0.06,-0.348 0.233,-0.392 0.172,-0.044 0.348,0.06 0.392,0.233 C 0.277,-0.219 0.173,-0.044 0,0"
     style="fill:#231f20;fill-opacity:1;fill-rule:nonzero;stroke:none"
     id="path818"
     inkscape:connector-curvature="0" /></g><g
   id="g820"
   transform="translate(145.244,565.196)"
   inkscape:export-xdpi="600"
   inkscape:export-ydpi="600"><path
     d="m 0,0 c -0.172,0.044 -0.348,-0.06 -0.392,-0.233 -0.044,-0.172 0.06,-0.348 0.233,-0.392 0.172,-0.044 0.348,0.06 0.392,0.233 C 0.277,-0.219 0.173,-0.044 0,0"
     style="fill:#231f20;fill-opacity:1;fill-rule:nonzero;stroke:none"
     id="path822"
     inkscape:connector-curvature="0" /></g><g
   id="g824"
   transform="translate(145.556,566.509)"
   inkscape:export-xdpi="600"
   inkscape:export-ydpi="600"><path
     d="m 0,0 c -0.173,0.044 -0.348,-0.06 -0.392,-0.233 -0.044,-0.172 0.06,-0.348 0.233,-0.392 0.172,-0.044 0.348,0.06 0.392,0.233 C 0.277,-0.219 0.173,-0.044 0,0"
     style="fill:#231f20;fill-opacity:1;fill-rule:nonzero;stroke:none"
     id="path826"
     inkscape:connector-curvature="0" /></g><g
   id="g828"
   transform="translate(146.369,567.634)"
   inkscape:export-xdpi="600"
   inkscape:export-ydpi="600"><path
     d="m 0,0 c -0.172,0.044 -0.348,-0.06 -0.392,-0.233 -0.044,-0.172 0.06,-0.348 0.233,-0.392 0.172,-0.044 0.348,0.06 0.392,0.233 C 0.277,-0.219 0.173,-0.044 0,0"
     style="fill:#231f20;fill-opacity:1;fill-rule:nonzero;stroke:none"
     id="path830"
     inkscape:connector-curvature="0" /></g><g
   id="g832"
   transform="translate(147.556,568.321)"
   inkscape:export-xdpi="600"
   inkscape:export-ydpi="600"><path
     d="m 0,0 c -0.173,0.044 -0.348,-0.06 -0.392,-0.233 -0.044,-0.172 0.06,-0.348 0.233,-0.392 0.172,-0.044 0.348,0.06 0.392,0.233 C 0.277,-0.22 0.173,-0.044 0,0"
     style="fill:#231f20;fill-opacity:1;fill-rule:nonzero;stroke:none"
     id="path834"
     inkscape:connector-curvature="0" /></g><g
   id="g836"
   transform="translate(150.119,568.321)"
   inkscape:export-xdpi="600"
   inkscape:export-ydpi="600"><path
     d="m 0,0 c -0.172,0.044 -0.348,-0.06 -0.392,-0.233 -0.044,-0.172 0.06,-0.348 0.233,-0.392 0.172,-0.044 0.348,0.06 0.392,0.233 C 0.277,-0.22 0.173,-0.044 0,0"
     style="fill:#231f20;fill-opacity:1;fill-rule:nonzero;stroke:none"
     id="path838"
     inkscape:connector-curvature="0" /></g><g
   id="g840"
   transform="translate(151.181,567.571)"
   inkscape:export-xdpi="600"
   inkscape:export-ydpi="600"><path
     d="m 0,0 c -0.173,0.044 -0.348,-0.06 -0.392,-0.233 -0.044,-0.172 0.06,-0.348 0.233,-0.392 0.172,-0.044 0.348,0.06 0.392,0.233 C 0.277,-0.22 0.173,-0.044 0,0"
     style="fill:#231f20;fill-opacity:1;fill-rule:nonzero;stroke:none"
     id="path842"
     inkscape:connector-curvature="0" /></g><g
   id="g844"
   transform="translate(151.869,566.509)"
   inkscape:export-xdpi="600"
   inkscape:export-ydpi="600"><path
     d="m 0,0 c -0.173,0.044 -0.348,-0.06 -0.392,-0.233 -0.044,-0.172 0.06,-0.348 0.233,-0.392 0.172,-0.044 0.348,0.06 0.392,0.233 C 0.277,-0.219 0.173,-0.044 0,0"
     style="fill:#231f20;fill-opacity:1;fill-rule:nonzero;stroke:none"
     id="path846"
     inkscape:connector-curvature="0" /></g><g
   id="g848"
   transform="translate(145.494,563.821)"
   inkscape:export-xdpi="600"
   inkscape:export-ydpi="600"><path
     d="m 0,0 c -0.173,0.044 -0.348,-0.06 -0.392,-0.233 -0.044,-0.172 0.06,-0.348 0.233,-0.392 0.172,-0.044 0.348,0.06 0.392,0.233 C 0.277,-0.22 0.173,-0.044 0,0"
     style="fill:#231f20;fill-opacity:1;fill-rule:nonzero;stroke:none"
     id="path850"
     inkscape:connector-curvature="0" /></g><g
   id="g852"
   transform="translate(146.306,562.696)"
   inkscape:export-xdpi="600"
   inkscape:export-ydpi="600"><path
     d="m 0,0 c -0.173,0.044 -0.348,-0.06 -0.392,-0.233 -0.044,-0.172 0.06,-0.348 0.233,-0.392 0.172,-0.044 0.348,0.06 0.392,0.233 C 0.277,-0.22 0.173,-0.044 0,0"
     style="fill:#231f20;fill-opacity:1;fill-rule:nonzero;stroke:none"
     id="path854"
     inkscape:connector-curvature="0" /></g><g
   id="g856"
   transform="translate(147.369,561.946)"
   inkscape:export-xdpi="600"
   inkscape:export-ydpi="600"><path
     d="m 0,0 c -0.173,0.044 -0.348,-0.06 -0.392,-0.233 -0.044,-0.172 0.06,-0.348 0.233,-0.392 0.172,-0.044 0.348,0.06 0.392,0.233 C 0.277,-0.22 0.173,-0.044 0,0"
     style="fill:#231f20;fill-opacity:1;fill-rule:nonzero;stroke:none"
     id="path858"
     inkscape:connector-curvature="0" /></g><g
   id="g860"
   transform="translate(151.931,563.759)"
   inkscape:export-xdpi="600"
   inkscape:export-ydpi="600"><path
     d="m 0,0 c -0.173,0.044 -0.348,-0.06 -0.392,-0.233 -0.044,-0.172 0.06,-0.348 0.233,-0.392 0.172,-0.044 0.348,0.06 0.392,0.233 C 0.277,-0.219 0.173,-0.044 0,0"
     style="fill:#231f20;fill-opacity:1;fill-rule:nonzero;stroke:none"
     id="path862"
     inkscape:connector-curvature="0" /></g><g
   id="g864"
   transform="translate(150.119,561.946)"
   inkscape:export-xdpi="600"
   inkscape:export-ydpi="600"><path
     d="m 0,0 c -0.172,0.044 -0.348,-0.06 -0.392,-0.233 -0.044,-0.172 0.06,-0.348 0.233,-0.392 0.172,-0.044 0.348,0.06 0.392,0.233 C 0.277,-0.22 0.173,-0.044 0,0"
     style="fill:#231f20;fill-opacity:1;fill-rule:nonzero;stroke:none"
     id="path866"
     inkscape:connector-curvature="0" /></g><g
   id="g868"
   transform="translate(151.257,562.729)"
   inkscape:export-xdpi="600"
   inkscape:export-ydpi="600"><path
     d="m 0,0 c -0.173,0.044 -0.348,-0.06 -0.392,-0.233 -0.044,-0.172 0.06,-0.348 0.233,-0.392 0.172,-0.044 0.348,0.06 0.392,0.233 C 0.277,-0.219 0.173,-0.044 0,0"
     style="fill:#231f20;fill-opacity:1;fill-rule:nonzero;stroke:none"
     id="path870"
     inkscape:connector-curvature="0" /></g><g
   id="g872"
   transform="translate(146.746,564.792)"
   inkscape:export-xdpi="600"
   inkscape:export-ydpi="600"><path
     d="M 0,0 C 0,1.076 0.873,1.949 1.949,1.949 3.025,1.949 3.898,1.076 3.898,0 3.898,-1.076 3.025,-1.949 1.949,-1.949 0.873,-1.949 0,-1.076 0,0 Z"
     style="fill:none;stroke:#231f20;stroke-width:0.44999999;stroke-linecap:butt;stroke-linejoin:miter;stroke-miterlimit:4;stroke-dasharray:none;stroke-opacity:1"
     id="path874"
     inkscape:connector-curvature="0" /></g><g
   id="g876"
   transform="translate(145.102,559.134)"
   inkscape:export-xdpi="600"
   inkscape:export-ydpi="600"><path
     d="M 0,0 C 0.164,-0.069 0.353,0.008 0.422,0.172 0.491,0.336 0.415,0.525 0.25,0.594 0.086,0.663 -0.103,0.586 -0.172,0.422 -0.241,0.258 -0.164,0.069 0,0"
     style="fill:#231f20;fill-opacity:1;fill-rule:nonzero;stroke:none"
     id="path878"
     inkscape:connector-curvature="0" /></g><g
   id="g880"
   transform="translate(144.204,559.893)"
   inkscape:export-xdpi="600"
   inkscape:export-ydpi="600"><path
     d="M 0,0 C 0.147,-0.101 0.348,-0.062 0.448,0.085 0.548,0.232 0.51,0.432 0.363,0.533 0.216,0.633 0.016,0.595 -0.085,0.448 -0.185,0.301 -0.147,0.1 0,0"
     style="fill:#231f20;fill-opacity:1;fill-rule:nonzero;stroke:none"
     id="path882"
     inkscape:connector-curvature="0" /></g><g
   id="g884"
   transform="translate(143.329,560.865)"
   inkscape:export-xdpi="600"
   inkscape:export-ydpi="600"><path
     d="M 0,0 C 0.124,-0.128 0.328,-0.13 0.456,-0.006 0.584,0.119 0.586,0.323 0.462,0.45 0.337,0.578 0.133,0.58 0.006,0.456 -0.122,0.332 -0.124,0.128 0,0"
     style="fill:#231f20;fill-opacity:1;fill-rule:nonzero;stroke:none"
     id="path886"
     inkscape:connector-curvature="0" /></g><g
   id="g888"
   transform="translate(142.665,561.991)"
   inkscape:export-xdpi="600"
   inkscape:export-ydpi="600"><path
     d="M 0,0 C 0.097,-0.15 0.296,-0.192 0.446,-0.096 0.596,0.001 0.639,0.2 0.542,0.35 0.445,0.5 0.246,0.543 0.096,0.446 -0.054,0.349 -0.097,0.15 0,0"
     style="fill:#231f20;fill-opacity:1;fill-rule:nonzero;stroke:none"
     id="path890"
     inkscape:connector-curvature="0" /></g><g
   id="g892"
   transform="translate(142.237,563.227)"
   inkscape:export-xdpi="600"
   inkscape:export-ydpi="600"><path
     d="M 0,0 C 0.065,-0.166 0.252,-0.247 0.418,-0.182 0.584,-0.117 0.665,0.07 0.6,0.236 0.535,0.401 0.348,0.483 0.182,0.418 0.017,0.353 -0.065,0.166 0,0"
     style="fill:#231f20;fill-opacity:1;fill-rule:nonzero;stroke:none"
     id="path894"
     inkscape:connector-curvature="0" /></g><g
   id="g896"
   transform="translate(142.062,564.522)"
   inkscape:export-xdpi="600"
   inkscape:export-ydpi="600"><path
     d="m 0,0 c 0.031,-0.175 0.198,-0.292 0.373,-0.261 0.176,0.03 0.293,0.198 0.262,0.373 C 0.604,0.287 0.437,0.405 0.262,0.374 0.086,0.343 -0.031,0.176 0,0"
     style="fill:#231f20;fill-opacity:1;fill-rule:nonzero;stroke:none"
     id="path898"
     inkscape:connector-curvature="0" /></g><g
   id="g900"
   transform="translate(142.147,565.827)"
   inkscape:export-xdpi="600"
   inkscape:export-ydpi="600"><path
     d="M 0,0 C -0.005,-0.178 0.136,-0.326 0.314,-0.331 0.492,-0.335 0.64,-0.194 0.645,-0.016 0.649,0.162 0.508,0.31 0.33,0.314 0.152,0.319 0.004,0.178 0,0"
     style="fill:#231f20;fill-opacity:1;fill-rule:nonzero;stroke:none"
     id="path902"
     inkscape:connector-curvature="0" /></g><g
   id="g904"
   transform="translate(142.49,567.09)"
   inkscape:export-xdpi="600"
   inkscape:export-ydpi="600"><path
     d="m 0,0 c -0.04,-0.174 0.069,-0.347 0.243,-0.386 0.173,-0.04 0.346,0.069 0.386,0.242 C 0.668,0.03 0.56,0.203 0.386,0.242 0.213,0.282 0.04,0.173 0,0"
     style="fill:#231f20;fill-opacity:1;fill-rule:nonzero;stroke:none"
     id="path906"
     inkscape:connector-curvature="0" /></g><g
   id="g908"
   transform="translate(143.075,568.259)"
   inkscape:export-xdpi="600"
   inkscape:export-ydpi="600"><path
     d="M 0,0 C -0.073,-0.162 -0.001,-0.353 0.161,-0.427 0.324,-0.5 0.515,-0.428 0.588,-0.265 0.661,-0.103 0.589,0.088 0.427,0.161 0.264,0.234 0.073,0.162 0,0"
     style="fill:#231f20;fill-opacity:1;fill-rule:nonzero;stroke:none"
     id="path910"
     inkscape:connector-curvature="0" /></g><g
   id="g912"
   transform="translate(143.881,569.288)"
   inkscape:export-xdpi="600"
   inkscape:export-ydpi="600"><path
     d="M 0,0 C -0.104,-0.145 -0.071,-0.346 0.073,-0.45 0.218,-0.554 0.42,-0.521 0.523,-0.376 0.628,-0.232 0.595,-0.03 0.45,0.073 0.306,0.177 0.104,0.145 0,0"
     style="fill:#231f20;fill-opacity:1;fill-rule:nonzero;stroke:none"
     id="path914"
     inkscape:connector-curvature="0" /></g><g
   id="g916"
   transform="translate(144.875,570.138)"
   inkscape:export-xdpi="600"
   inkscape:export-ydpi="600"><path
     d="m 0,0 c -0.131,-0.121 -0.138,-0.325 -0.017,-0.456 0.121,-0.13 0.325,-0.138 0.456,-0.017 0.13,0.121 0.138,0.325 0.017,0.456 C 0.335,0.113 0.131,0.121 0,0"
     style="fill:#231f20;fill-opacity:1;fill-rule:nonzero;stroke:none"
     id="path918"
     inkscape:connector-curvature="0" /></g><g
   id="g920"
   transform="translate(146.018,570.774)"
   inkscape:export-xdpi="600"
   inkscape:export-ydpi="600"><path
     d="m 0,0 c -0.152,-0.093 -0.2,-0.291 -0.107,-0.443 0.093,-0.152 0.291,-0.2 0.443,-0.108 0.152,0.093 0.2,0.292 0.107,0.444 C 0.351,0.045 0.152,0.093 0,0"
     style="fill:#231f20;fill-opacity:1;fill-rule:nonzero;stroke:none"
     id="path922"
     inkscape:connector-curvature="0" /></g><g
   id="g924"
   transform="translate(147.264,571.171)"
   inkscape:export-xdpi="600"
   inkscape:export-ydpi="600"><path
     d="M 0,0 C -0.167,-0.061 -0.254,-0.246 -0.193,-0.413 -0.132,-0.581 0.053,-0.667 0.22,-0.606 0.388,-0.545 0.474,-0.36 0.413,-0.193 0.352,-0.026 0.167,0.061 0,0"
     style="fill:#231f20;fill-opacity:1;fill-rule:nonzero;stroke:none"
     id="path926"
     inkscape:connector-curvature="0" /></g><g
   id="g928"
   transform="translate(148.564,571.313)"
   inkscape:export-xdpi="600"
   inkscape:export-ydpi="600"><path
     d="m 0,0 c -0.176,-0.026 -0.298,-0.191 -0.271,-0.367 0.026,-0.176 0.191,-0.297 0.367,-0.271 0.176,0.027 0.297,0.191 0.271,0.367 C 0.34,-0.095 0.176,0.026 0,0"
     style="fill:#231f20;fill-opacity:1;fill-rule:nonzero;stroke:none"
     id="path930"
     inkscape:connector-curvature="0" /></g><g
   id="g932"
   transform="translate(149.866,571.195)"
   inkscape:export-xdpi="600"
   inkscape:export-ydpi="600"><path
     d="m 0,0 c -0.178,0.009 -0.329,-0.128 -0.338,-0.306 -0.009,-0.178 0.128,-0.329 0.306,-0.338 0.177,-0.009 0.329,0.128 0.338,0.306 C 0.315,-0.16 0.178,-0.009 0,0"
     style="fill:#231f20;fill-opacity:1;fill-rule:nonzero;stroke:none"
     id="path934"
     inkscape:connector-curvature="0" /></g><g
   id="g936"
   transform="translate(151.119,570.821)"
   inkscape:export-xdpi="600"
   inkscape:export-ydpi="600"><path
     d="m 0,0 c -0.173,0.044 -0.348,-0.06 -0.392,-0.233 -0.044,-0.172 0.06,-0.348 0.233,-0.392 0.172,-0.044 0.348,0.06 0.392,0.233 C 0.277,-0.219 0.173,-0.044 0,0"
     style="fill:#231f20;fill-opacity:1;fill-rule:nonzero;stroke:none"
     id="path938"
     inkscape:connector-curvature="0" /></g><g
   id="g940"
   transform="translate(152.273,570.206)"
   inkscape:export-xdpi="600"
   inkscape:export-ydpi="600"><path
     d="m 0,0 c -0.16,0.077 -0.353,0.01 -0.431,-0.151 -0.077,-0.16 -0.01,-0.352 0.151,-0.43 0.16,-0.077 0.353,-0.01 0.43,0.15 C 0.228,-0.27 0.16,-0.077 0,0"
     style="fill:#231f20;fill-opacity:1;fill-rule:nonzero;stroke:none"
     id="path942"
     inkscape:connector-curvature="0" /></g><g
   id="g944"
   transform="translate(153.282,569.375)"
   inkscape:export-xdpi="600"
   inkscape:export-ydpi="600"><path
     d="m 0,0 c -0.142,0.108 -0.344,0.08 -0.452,-0.062 -0.107,-0.142 -0.079,-0.344 0.062,-0.452 0.142,-0.107 0.345,-0.08 0.452,0.062 C 0.17,-0.31 0.142,-0.108 0,0"
     style="fill:#231f20;fill-opacity:1;fill-rule:nonzero;stroke:none"
     id="path946"
     inkscape:connector-curvature="0" /></g><g
   id="g948"
   transform="translate(154.107,568.36)"
   inkscape:export-xdpi="600"
   inkscape:export-ydpi="600"><path
     d="M 0,0 C -0.118,0.134 -0.322,0.146 -0.455,0.029 -0.589,-0.089 -0.602,-0.293 -0.484,-0.426 -0.366,-0.56 -0.162,-0.573 -0.029,-0.455 0.105,-0.337 0.118,-0.133 0,0"
     style="fill:#231f20;fill-opacity:1;fill-rule:nonzero;stroke:none"
     id="path950"
     inkscape:connector-curvature="0" /></g><g
   id="g952"
   transform="translate(154.714,567.202)"
   inkscape:export-xdpi="600"
   inkscape:export-ydpi="600"><path
     d="M 0,0 C -0.089,0.154 -0.286,0.207 -0.441,0.118 -0.595,0.029 -0.648,-0.168 -0.559,-0.322 -0.47,-0.477 -0.273,-0.529 -0.118,-0.44 0.036,-0.351 0.089,-0.154 0,0"
     style="fill:#231f20;fill-opacity:1;fill-rule:nonzero;stroke:none"
     id="path954"
     inkscape:connector-curvature="0" /></g><g
   id="g956"
   transform="translate(155.079,565.947)"
   inkscape:export-xdpi="600"
   inkscape:export-ydpi="600"><path
     d="m 0,0 c -0.057,0.169 -0.239,0.26 -0.408,0.203 -0.169,-0.057 -0.26,-0.239 -0.203,-0.408 0.056,-0.169 0.239,-0.26 0.408,-0.203 C -0.034,-0.352 0.057,-0.169 0,0"
     style="fill:#231f20;fill-opacity:1;fill-rule:nonzero;stroke:none"
     id="path958"
     inkscape:connector-curvature="0" /></g><g
   id="g960"
   transform="translate(155.188,564.644)"
   inkscape:export-xdpi="600"
   inkscape:export-ydpi="600"><path
     d="M 0,0 C -0.022,0.177 -0.183,0.302 -0.36,0.28 -0.536,0.258 -0.662,0.097 -0.64,-0.08 -0.618,-0.257 -0.457,-0.382 -0.28,-0.36 -0.103,-0.338 0.022,-0.177 0,0"
     style="fill:#231f20;fill-opacity:1;fill-rule:nonzero;stroke:none"
     id="path962"
     inkscape:connector-curvature="0" /></g><g
   id="g964"
   transform="translate(155.038,563.345)"
   inkscape:export-xdpi="600"
   inkscape:export-ydpi="600"><path
     d="M 0,0 C 0.013,0.178 -0.12,0.332 -0.297,0.346 -0.475,0.359 -0.63,0.226 -0.643,0.049 -0.656,-0.129 -0.523,-0.284 -0.346,-0.297 -0.168,-0.311 -0.013,-0.178 0,0"
     style="fill:#231f20;fill-opacity:1;fill-rule:nonzero;stroke:none"
     id="path966"
     inkscape:connector-curvature="0" /></g><g
   id="g968"
   transform="translate(154.632,562.102)"
   inkscape:export-xdpi="600"
   inkscape:export-ydpi="600"><path
     d="M 0,0 C 0.048,0.172 -0.051,0.35 -0.223,0.398 -0.394,0.446 -0.572,0.346 -0.621,0.175 -0.669,0.004 -0.569,-0.175 -0.398,-0.223 -0.226,-0.271 -0.048,-0.171 0,0"
     style="fill:#231f20;fill-opacity:1;fill-rule:nonzero;stroke:none"
     id="path970"
     inkscape:connector-curvature="0" /></g><g
   id="g972"
   transform="translate(153.989,560.964)"
   inkscape:export-xdpi="600"
   inkscape:export-ydpi="600"><path
     d="M 0,0 C 0.081,0.158 0.019,0.353 -0.14,0.434 -0.298,0.515 -0.492,0.453 -0.574,0.294 -0.655,0.136 -0.592,-0.058 -0.434,-0.14 -0.276,-0.221 -0.081,-0.158 0,0"
     style="fill:#231f20;fill-opacity:1;fill-rule:nonzero;stroke:none"
     id="path974"
     inkscape:connector-curvature="0" /></g><g
   id="g976"
   transform="translate(153.133,559.975)"
   inkscape:export-xdpi="600"
   inkscape:export-ydpi="600"><path
     d="M 0,0 C 0.111,0.139 0.088,0.342 -0.051,0.453 -0.19,0.564 -0.393,0.542 -0.504,0.402 -0.615,0.263 -0.592,0.06 -0.453,-0.051 -0.314,-0.162 -0.111,-0.139 0,0"
     style="fill:#231f20;fill-opacity:1;fill-rule:nonzero;stroke:none"
     id="path978"
     inkscape:connector-curvature="0" /></g><g
   id="g980"
   transform="translate(152.097,559.177)"
   inkscape:export-xdpi="600"
   inkscape:export-ydpi="600"><path
     d="M 0,0 C 0.136,0.115 0.154,0.318 0.04,0.454 -0.074,0.591 -0.278,0.609 -0.414,0.494 -0.551,0.38 -0.569,0.177 -0.454,0.04 -0.34,-0.096 -0.137,-0.114 0,0"
     style="fill:#231f20;fill-opacity:1;fill-rule:nonzero;stroke:none"
     id="path982"
     inkscape:connector-curvature="0" /></g><g
   id="g984"
   transform="translate(150.924,558.599)"
   inkscape:export-xdpi="600"
   inkscape:export-ydpi="600"><path
     d="M 0,0 C 0.156,0.085 0.214,0.281 0.129,0.437 0.044,0.594 -0.152,0.652 -0.308,0.566 -0.465,0.481 -0.522,0.285 -0.437,0.129 -0.352,-0.027 -0.157,-0.085 0,0"
     style="fill:#231f20;fill-opacity:1;fill-rule:nonzero;stroke:none"
     id="path986"
     inkscape:connector-curvature="0" /></g><g
   id="g988"
   transform="translate(149.785,558.265)"
   inkscape:export-xdpi="600"
   inkscape:export-ydpi="600"><path
     d="M 0,0 C 0.17,0.052 0.266,0.233 0.213,0.403 0.161,0.573 -0.02,0.669 -0.19,0.616 -0.36,0.564 -0.456,0.384 -0.403,0.214 -0.351,0.043 -0.17,-0.052 0,0"
     style="fill:#231f20;fill-opacity:1;fill-rule:nonzero;stroke:none"
     id="path990"
     inkscape:connector-curvature="0" /></g><g
   id="g992"
   transform="translate(148.542,558.157)"
   inkscape:export-xdpi="600"
   inkscape:export-ydpi="600"><path
     d="M 0,0 C 0.177,0.018 0.307,0.175 0.289,0.352 0.271,0.53 0.113,0.659 -0.064,0.642 -0.241,0.624 -0.37,0.466 -0.353,0.289 -0.335,0.112 -0.177,-0.018 0,0"
     style="fill:#231f20;fill-opacity:1;fill-rule:nonzero;stroke:none"
     id="path994"
     inkscape:connector-curvature="0" /></g><g
   id="g996"
   transform="translate(147.542,559.72)"
   inkscape:export-xdpi="600"
   inkscape:export-ydpi="600"><path
     d="M 0,0 C 0.177,0.018 0.307,0.175 0.289,0.353 0.271,0.53 0.113,0.659 -0.064,0.641 -0.241,0.624 -0.37,0.466 -0.353,0.289 -0.335,0.112 -0.177,-0.018 0,0"
     style="fill:#231f20;fill-opacity:1;fill-rule:nonzero;stroke:none"
     id="path998"
     inkscape:connector-curvature="0" /></g><g
   id="g1000"
   transform="translate(146.264,560.201)"
   inkscape:export-xdpi="600"
   inkscape:export-ydpi="600"><path
     d="M 0,0 C 0.175,-0.035 0.344,0.079 0.379,0.254 0.413,0.428 0.3,0.598 0.125,0.633 -0.049,0.667 -0.219,0.553 -0.254,0.379 -0.288,0.204 -0.175,0.035 0,0"
     style="fill:#231f20;fill-opacity:1;fill-rule:nonzero;stroke:none"
     id="path1002"
     inkscape:connector-curvature="0" /></g><g
   id="g1004"
   transform="translate(145.147,560.986)"
   inkscape:export-xdpi="600"
   inkscape:export-ydpi="600"><path
     d="M 0,0 C 0.157,-0.084 0.353,-0.024 0.436,0.133 0.52,0.29 0.461,0.485 0.304,0.569 0.146,0.653 -0.049,0.593 -0.133,0.436 -0.216,0.279 -0.157,0.084 0,0"
     style="fill:#231f20;fill-opacity:1;fill-rule:nonzero;stroke:none"
     id="path1006"
     inkscape:connector-curvature="0" /></g><g
   id="g1008"
   transform="translate(144.204,562.158)"
   inkscape:export-xdpi="600"
   inkscape:export-ydpi="600"><path
     d="m 0,0 c 0.126,-0.126 0.33,-0.126 0.456,0 0.126,0.126 0.125,0.33 0,0.456 C 0.33,0.582 0.125,0.582 0,0.456 -0.126,0.33 -0.126,0.126 0,0"
     style="fill:#231f20;fill-opacity:1;fill-rule:nonzero;stroke:none"
     id="path1010"
     inkscape:connector-curvature="0" /></g><g
   id="g1012"
   transform="translate(143.643,563.553)"
   inkscape:export-xdpi="600"
   inkscape:export-ydpi="600"><path
     d="M 0,0 C 0.084,-0.157 0.279,-0.216 0.437,-0.132 0.594,-0.048 0.653,0.147 0.569,0.304 0.484,0.461 0.289,0.521 0.132,0.436 -0.025,0.352 -0.084,0.157 0,0"
     style="fill:#231f20;fill-opacity:1;fill-rule:nonzero;stroke:none"
     id="path1014"
     inkscape:connector-curvature="0" /></g><g
   id="g1016"
   transform="translate(143.51,565.05)"
   inkscape:export-xdpi="600"
   inkscape:export-ydpi="600"><path
     d="M 0,0 C 0.035,-0.175 0.204,-0.288 0.379,-0.253 0.554,-0.219 0.667,-0.049 0.632,0.126 0.597,0.301 0.428,0.414 0.253,0.379 0.078,0.344 -0.035,0.174 0,0"
     style="fill:#231f20;fill-opacity:1;fill-rule:nonzero;stroke:none"
     id="path1018"
     inkscape:connector-curvature="0" /></g><g
   id="g1020"
   transform="translate(143.818,566.522)"
   inkscape:export-xdpi="600"
   inkscape:export-ydpi="600"><path
     d="M 0,0 C -0.017,-0.177 0.112,-0.335 0.289,-0.352 0.467,-0.37 0.624,-0.24 0.642,-0.063 0.659,0.114 0.53,0.272 0.352,0.289 0.175,0.307 0.017,0.177 0,0"
     style="fill:#231f20;fill-opacity:1;fill-rule:nonzero;stroke:none"
     id="path1022"
     inkscape:connector-curvature="0" /></g><g
   id="g1024"
   transform="translate(144.54,567.841)"
   inkscape:export-xdpi="600"
   inkscape:export-ydpi="600"><path
     d="m 0,0 c -0.068,-0.165 0.01,-0.353 0.175,-0.421 0.164,-0.068 0.353,0.01 0.421,0.174 C 0.664,-0.082 0.586,0.106 0.421,0.175 0.257,0.243 0.068,0.165 0,0"
     style="fill:#231f20;fill-opacity:1;fill-rule:nonzero;stroke:none"
     id="path1026"
     inkscape:connector-curvature="0" /></g><g
   id="g1028"
   transform="translate(145.614,568.894)"
   inkscape:export-xdpi="600"
   inkscape:export-ydpi="600"><path
     d="M 0,0 C -0.113,-0.138 -0.093,-0.341 0.045,-0.454 0.182,-0.567 0.386,-0.547 0.499,-0.409 0.612,-0.271 0.592,-0.068 0.454,0.045 0.316,0.158 0.113,0.138 0,0"
     style="fill:#231f20;fill-opacity:1;fill-rule:nonzero;stroke:none"
     id="path1030"
     inkscape:connector-curvature="0" /></g><g
   id="g1032"
   transform="translate(146.948,569.589)"
   inkscape:export-xdpi="600"
   inkscape:export-ydpi="600"><path
     d="M 0,0 C -0.148,-0.099 -0.188,-0.299 -0.089,-0.447 0.01,-0.595 0.21,-0.635 0.358,-0.536 0.506,-0.437 0.546,-0.237 0.447,-0.089 0.348,0.059 0.148,0.099 0,0"
     style="fill:#231f20;fill-opacity:1;fill-rule:nonzero;stroke:none"
     id="path1034"
     inkscape:connector-curvature="0" /></g><g
   id="g1036"
   transform="translate(148.426,569.867)"
   inkscape:export-xdpi="600"
   inkscape:export-ydpi="600"><path
     d="m 0,0 c -0.171,-0.052 -0.267,-0.232 -0.215,-0.402 0.052,-0.171 0.232,-0.267 0.402,-0.215 0.171,0.051 0.267,0.232 0.215,0.402 C 0.35,-0.044 0.17,0.052 0,0"
     style="fill:#231f20;fill-opacity:1;fill-rule:nonzero;stroke:none"
     id="path1038"
     inkscape:connector-curvature="0" /></g><g
   id="g1040"
   transform="translate(149.921,569.704)"
   inkscape:export-xdpi="600"
   inkscape:export-ydpi="600"><path
     d="m 0,0 c -0.178,0 -0.322,-0.145 -0.322,-0.323 0,-0.178 0.144,-0.322 0.322,-0.322 0.178,0 0.322,0.144 0.322,0.322 C 0.322,-0.145 0.178,0 0,0"
     style="fill:#231f20;fill-opacity:1;fill-rule:nonzero;stroke:none"
     id="path1042"
     inkscape:connector-curvature="0" /></g><g
   id="g1044"
   transform="translate(151.304,569.114)"
   inkscape:export-xdpi="600"
   inkscape:export-ydpi="600"><path
     d="m 0,0 c -0.17,0.052 -0.35,-0.045 -0.402,-0.215 -0.052,-0.171 0.044,-0.35 0.215,-0.402 0.17,-0.052 0.35,0.044 0.402,0.215 C 0.267,-0.232 0.17,-0.052 0,0"
     style="fill:#231f20;fill-opacity:1;fill-rule:nonzero;stroke:none"
     id="path1046"
     inkscape:connector-curvature="0" /></g><g
   id="g1048"
   transform="translate(152.456,568.148)"
   inkscape:export-xdpi="600"
   inkscape:export-ydpi="600"><path
     d="M 0,0 C -0.148,0.099 -0.348,0.059 -0.447,-0.089 -0.546,-0.237 -0.506,-0.437 -0.358,-0.536 -0.21,-0.635 -0.01,-0.595 0.089,-0.447 0.188,-0.299 0.148,-0.099 0,0"
     style="fill:#231f20;fill-opacity:1;fill-rule:nonzero;stroke:none"
     id="path1050"
     inkscape:connector-curvature="0" /></g><g
   id="g1052"
   transform="translate(153.278,566.889)"
   inkscape:export-xdpi="600"
   inkscape:export-ydpi="600"><path
     d="m 0,0 c -0.113,0.138 -0.316,0.158 -0.454,0.045 -0.138,-0.113 -0.158,-0.316 -0.045,-0.454 0.113,-0.138 0.316,-0.158 0.454,-0.045 C 0.093,-0.341 0.113,-0.138 0,0"
     style="fill:#231f20;fill-opacity:1;fill-rule:nonzero;stroke:none"
     id="path1054"
     inkscape:connector-curvature="0" /></g><g
   id="g1056"
   transform="translate(153.699,565.445)"
   inkscape:export-xdpi="600"
   inkscape:export-ydpi="600"><path
     d="M 0,0 C -0.068,0.165 -0.257,0.243 -0.421,0.175 -0.586,0.106 -0.664,-0.082 -0.596,-0.247 -0.528,-0.411 -0.339,-0.49 -0.175,-0.421 -0.01,-0.353 0.068,-0.165 0,0"
     style="fill:#231f20;fill-opacity:1;fill-rule:nonzero;stroke:none"
     id="path1058"
     inkscape:connector-curvature="0" /></g><g
   id="g1060"
   transform="translate(153.683,563.941)"
   inkscape:export-xdpi="600"
   inkscape:export-ydpi="600"><path
     d="M 0,0 C -0.017,0.177 -0.175,0.307 -0.352,0.289 -0.53,0.272 -0.659,0.114 -0.642,-0.063 -0.624,-0.24 -0.467,-0.37 -0.289,-0.352 -0.112,-0.335 0.017,-0.177 0,0"
     style="fill:#231f20;fill-opacity:1;fill-rule:nonzero;stroke:none"
     id="path1062"
     inkscape:connector-curvature="0" /></g><g
   id="g1064"
   transform="translate(153.231,562.507)"
   inkscape:export-xdpi="600"
   inkscape:export-ydpi="600"><path
     d="M 0,0 C 0.035,0.175 -0.079,0.344 -0.253,0.379 -0.428,0.414 -0.598,0.301 -0.632,0.126 -0.667,-0.049 -0.554,-0.218 -0.379,-0.253 -0.204,-0.288 -0.035,-0.175 0,0"
     style="fill:#231f20;fill-opacity:1;fill-rule:nonzero;stroke:none"
     id="path1066"
     inkscape:connector-curvature="0" /></g><g
   id="g1068"
   transform="translate(152.382,561.266)"
   inkscape:export-xdpi="600"
   inkscape:export-ydpi="600"><path
     d="M 0,0 C 0.084,0.157 0.025,0.352 -0.132,0.436 -0.289,0.52 -0.485,0.461 -0.569,0.304 -0.653,0.147 -0.594,-0.048 -0.436,-0.132 -0.279,-0.216 -0.084,-0.157 0,0"
     style="fill:#231f20;fill-opacity:1;fill-rule:nonzero;stroke:none"
     id="path1070"
     inkscape:connector-curvature="0" /></g><g
   id="g1072"
   transform="translate(151.365,560.387)"
   inkscape:export-xdpi="600"
   inkscape:export-ydpi="600"><path
     d="m 0,0 c 0.126,0.126 0.126,0.33 0,0.456 -0.126,0.126 -0.33,0.126 -0.456,0 C -0.582,0.33 -0.582,0.126 -0.456,0 -0.33,-0.126 -0.126,-0.126 0,0"
     style="fill:#231f20;fill-opacity:1;fill-rule:nonzero;stroke:none"
     id="path1074"
     inkscape:connector-curvature="0" /></g><g
   id="g1076"
   transform="translate(150.126,559.827)"
   inkscape:export-xdpi="600"
   inkscape:export-ydpi="600"><path
     d="M 0,0 C 0.157,0.084 0.217,0.279 0.133,0.436 0.049,0.593 -0.146,0.653 -0.304,0.569 -0.461,0.485 -0.52,0.29 -0.436,0.133 -0.352,-0.025 -0.157,-0.084 0,0"
     style="fill:#231f20;fill-opacity:1;fill-rule:nonzero;stroke:none"
     id="path1078"
     inkscape:connector-curvature="0" /></g><g
   id="g1080"
   transform="translate(147.395,558.308)"
   inkscape:export-xdpi="600"
   inkscape:export-ydpi="600"><path
     d="M 0,0 C 0.178,0 0.322,0.145 0.322,0.323 0.322,0.501 0.178,0.645 0,0.645 -0.178,0.645 -0.323,0.501 -0.323,0.323 -0.323,0.145 -0.178,0 0,0"
     style="fill:#231f20;fill-opacity:1;fill-rule:nonzero;stroke:none"
     id="path1082"
     inkscape:connector-curvature="0" /></g><g
   id="g1084"
   transform="translate(146.218,558.619)"
   inkscape:export-xdpi="600"
   inkscape:export-ydpi="600"><path
     d="M 0,0 C 0.175,-0.035 0.345,0.078 0.38,0.252 0.415,0.427 0.302,0.597 0.128,0.632 -0.047,0.667 -0.217,0.555 -0.252,0.38 -0.288,0.205 -0.175,0.035 0,0"
     style="fill:#231f20;fill-opacity:1;fill-rule:nonzero;stroke:none"
     id="path1086"
     inkscape:connector-curvature="0" /></g><g
   id="g1088"
   transform="translate(148.761,559.626)"
   inkscape:export-xdpi="600"
   inkscape:export-ydpi="600"><path
     d="M 0,0 C 0.177,0.018 0.307,0.176 0.289,0.353 0.272,0.53 0.113,0.659 -0.064,0.642 -0.241,0.624 -0.37,0.466 -0.353,0.289 -0.335,0.112 -0.177,-0.018 0,0"
     style="fill:#231f20;fill-opacity:1;fill-rule:nonzero;stroke:none"
     id="path1090"
     inkscape:connector-curvature="0" /></g>




</g></svg>