<?xml version="1.0" encoding="UTF-8" standalone="no"?>
<!-- Created with Inkscape (http://www.inkscape.org/) -->

<svg
   version="1.1"
   id="svg2"
   width="17.352398"
   height="14.713807"
   viewBox="0 0 17.352398 14.713807"
   sodipodi:docname="symbole_sia_NDB.svg"
   inkscape:dataloss="true"
   xmlns:inkscape="http://www.inkscape.org/namespaces/inkscape"
   xmlns:sodipodi="http://sodipodi.sourceforge.net/DTD/sodipodi-0.dtd"
   xmlns="http://www.w3.org/2000/svg"
   xmlns:svg="http://www.w3.org/2000/svg">
  <sodipodi:namedview
     id="namedview854"
     pagecolor="#ffffff"
     bordercolor="#000000"
     borderopacity="0.25"
     inkscape:showpageshadow="2"
     inkscape:pageopacity="0.0"
     inkscape:pagecheckerboard="0"
     inkscape:deskcolor="#d1d1d1"
     showgrid="false"
     inkscape:zoom="2.3632334"
     inkscape:cx="22.4269"
     inkscape:cy="88.649728"
     inkscape:window-width="1792"
     inkscape:window-height="997"
     inkscape:window-x="0"
     inkscape:window-y="25"
     inkscape:window-maximized="0"
     inkscape:current-layer="svg2" />
  <defs
     id="defs6">
    <clipPath
       clipPathUnits="userSpaceOnUse"
       id="clipPath3484">
      <g
         id="g3488"
         transform="matrix(1.0048232,0,0,1.0048232,-369.90102,-42.159224)">
        <path
           d="M 0,2.535 H 417.5143 V 594.9537 H 0 Z"
           id="path3486" />
      </g>
    </clipPath>
    <clipPath
       clipPathUnits="userSpaceOnUse"
       id="clipPath3490">
      <g
         id="g3494">
        <path
           d="M 0,2.535 H 417.5143 V 594.9537 H 0 Z"
           id="path3492" />
      </g>
    </clipPath>
    <clipPath
       clipPathUnits="userSpaceOnUse"
       id="clipPath3496">
      <g
         id="g3500"
         transform="matrix(1.0048232,0,0,1.0048232,-363.19403,-46.027231)">
        <path
           d="M 0,2.535 H 417.5143 V 594.9537 H 0 Z"
           id="path3498" />
      </g>
    </clipPath>
    <clipPath
       clipPathUnits="userSpaceOnUse"
       id="clipPath3502">
      <g
         id="g3506"
         transform="matrix(1.0048232,0,0,1.0048232,-361.49297,-47.071222)">
        <path
           d="M 0,2.535 H 417.5143 V 594.9537 H 0 Z"
           id="path3504" />
      </g>
    </clipPath>
    <clipPath
       clipPathUnits="userSpaceOnUse"
       id="clipPath3508">
      <g
         id="g3512"
         transform="matrix(1.0048232,0,0,1.0048232,0,-2.5472267)">
        <path
           d="M 0,2.535 H 417.5143 V 594.9537 H 0 Z"
           id="path3510" />
      </g>
    </clipPath>
  </defs>
  <g
     id="g652"
     transform="matrix(1.3269333,0,0,-1.3269333,-476.21437,59.544116)"
     clip-path="url(#clipPath3508)">
    <path
       d="m 363.118,34.0349 h 4.5352 v 1.9841 h -4.5352 z"
       style="fill:#231f20;fill-opacity:1;fill-rule:nonzero;stroke:#231f20;stroke-width:0.5;stroke-linecap:butt;stroke-linejoin:miter;stroke-miterlimit:4;stroke-dasharray:none;stroke-opacity:1"
       id="path654" />
  </g>
  <g
     id="g656"
     transform="matrix(1.3269333,0,0,-1.3269333,3.4626838,0.46374602)"
     clip-path="url(#clipPath3502)">
    <path
       d="M 0,0 1.718,-0.992 -0.549,-4.92 -2.268,-3.928 Z"
       style="fill:#231f20;fill-opacity:1;fill-rule:nonzero;stroke:#231f20;stroke-width:0.5;stroke-linecap:butt;stroke-linejoin:miter;stroke-miterlimit:4;stroke-dasharray:none;stroke-opacity:1"
       id="path658" />
  </g>
  <g
     id="g660"
     transform="matrix(1.3269333,0,0,-1.3269333,5.7198838,1.849046)"
     clip-path="url(#clipPath3496)">
    <path
       d="M 0,0 H 4.437 L 6.625,-3.75 4.437,-7.438 h -4.562 l -2.125,3.626 z"
       style="fill:none;stroke:#231f20;stroke-width:0.5;stroke-linecap:butt;stroke-linejoin:miter;stroke-miterlimit:4;stroke-dasharray:none;stroke-opacity:1"
       id="path662" />
  </g>
  <path
     d="m 363.1445,42.10515 c 0,0.26671 0.216,0.48267 0.4827,0.48267 0.2667,0 0.4836,-0.21596 0.4836,-0.48267 0,-0.26672 -0.2169,-0.48267 -0.4836,-0.48267 -0.2667,0 -0.4827,0.21595 -0.4827,0.48267"
     style="fill:#231f20;fill-opacity:1;fill-rule:nonzero;stroke:none"
     id="path664"
     clip-path="url(#clipPath3490)"
     transform="matrix(1.3333333,0,0,-1.3333333,-476.21437,62.924116)" />
  <g
     id="g666"
     transform="matrix(1.3269333,0,0,-1.3269333,14.619624,6.981636)"
     clip-path="url(#clipPath3484)">
    <path
       d="M 0,0 1.718,0.992 -0.549,4.92 -2.268,3.928 Z"
       style="fill:#231f20;fill-opacity:1;fill-rule:nonzero;stroke:#231f20;stroke-width:0.5;stroke-linecap:butt;stroke-linejoin:miter;stroke-miterlimit:4;stroke-dasharray:none;stroke-opacity:1"
       id="path668" />
  </g>
</svg>
